<svg width="32" height="24" viewBox="0 0 32 24" fill="none" xmlns="http://www.w3.org/2000/svg">
<path d="M0.1 3.11C0.301636 2.22649 0.797311 1.43763 1.50584 0.872617C2.21438 0.307607 3.09377 -6.09889e-05 4 9.06828e-09H28C28.9062 -6.09889e-05 29.7856 0.307607 30.4942 0.872617C31.2027 1.43763 31.6984 2.22649 31.9 3.11L16 12.828L0.1 3.11ZM0 5.394V19.602L11.606 12.486L0 5.394ZM13.522 13.66L0.382 21.714C0.706653 22.3986 1.21905 22.9769 1.85956 23.3816C2.50007 23.7863 3.24235 24.0007 4 24H28C28.7575 24.0002 29.4995 23.7852 30.1397 23.3802C30.7798 22.9751 31.2918 22.3966 31.616 21.712L18.476 13.658L16 15.172L13.522 13.66ZM20.394 12.488L32 19.602V5.394L20.394 12.486V12.488Z" fill="url(#paint0_linear_71_200)"/>
<defs>
<linearGradient id="paint0_linear_71_200" x1="16" y1="0" x2="16" y2="24" gradientUnits="userSpaceOnUse">
<stop stop-color="#059669"/>
<stop offset="1" stop-color="#0891B2"/>
</linearGradient>
</defs>
</svg>
